<?xml version="1.0" encoding="iso-8859-1"?>
<!-- Generator: Adobe Illustrator 19.0.0, SVG Export Plug-In . SVG Version: 6.00 Build 0)  -->
<svg version="1.1" id="Capa_1" xmlns="http://www.w3.org/2000/svg" xmlns:xlink="http://www.w3.org/1999/xlink" x="0px" y="0px"
	 viewBox="0 0 463 463" style="enable-background:new 0 0 463 463;" xml:space="preserve">
<g>
	<path d="M267.554,115.731C284.12,104.26,295,85.131,295,63.5C295,28.486,266.514,0,231.5,0S168,28.486,168,63.5
		c0,21.631,10.88,40.76,27.446,52.231C115.912,132.405,56,203.084,56,287.5C56,384.271,134.729,463,231.5,463S407,384.271,407,287.5
		C407,203.084,347.088,132.405,267.554,115.731z M223.5,72c-4.687,0-8.5-3.813-8.5-8.5s3.813-8.5,8.5-8.5h16
		c4.687,0,8.5,3.813,8.5,8.5s-3.813,8.5-8.5,8.5H223.5z M183,63.5c0-26.743,21.757-48.5,48.5-48.5S280,36.757,280,63.5
		c0,24.193-17.806,44.302-41,47.918V87h0.5c12.958,0,23.5-10.542,23.5-23.5S252.458,40,239.5,40h-16C210.542,40,200,50.542,200,63.5
		S210.542,87,223.5,87h0.5v24.418C200.806,107.802,183,87.693,183,63.5z M231.5,448C143,448,71,376,71,287.5S143,127,231.5,127
		S392,199,392,287.5S320,448,231.5,448z"/>
	<path d="M231.5,144C152.374,144,88,208.374,88,287.5S152.374,431,231.5,431S375,366.626,375,287.5S310.626,144,231.5,144z
		 M302.112,394.804l-8.117-14.059c-2.072-3.587-6.659-4.817-10.245-2.745c-3.587,2.071-4.816,6.658-2.745,10.245l8.13,14.082
		c-15.236,7.678-32.197,12.411-50.135,13.449V399.5c0-4.142-3.358-7.5-7.5-7.5s-7.5,3.358-7.5,7.5v16.275
		c-17.938-1.038-34.899-5.77-50.135-13.449l8.13-14.082c2.071-3.587,0.842-8.174-2.745-10.245
		c-3.588-2.073-8.174-0.842-10.245,2.745l-8.117,14.059c-14.569-9.62-27.072-22.122-36.692-36.692l14.059-8.117
		c3.587-2.071,4.816-6.658,2.745-10.245c-2.071-3.588-6.658-4.817-10.245-2.745l-14.082,8.13
		c-7.678-15.236-12.411-32.197-13.449-50.135H119.5c4.142,0,7.5-3.358,7.5-7.5s-3.358-7.5-7.5-7.5h-16.275
		c1.038-17.938,5.77-34.899,13.449-50.135l14.082,8.13c1.181,0.682,2.471,1.006,3.743,1.006c2.592,0,5.113-1.345,6.502-3.751
		c2.071-3.587,0.842-8.174-2.745-10.245l-14.059-8.117c9.62-14.569,22.122-27.072,36.692-36.692l8.117,14.059
		c1.389,2.406,3.91,3.751,6.502,3.751c1.272,0,2.562-0.324,3.743-1.006c3.587-2.071,4.816-6.658,2.745-10.245l-8.13-14.082
		c15.236-7.678,32.197-12.411,50.135-13.449V175.5c0,4.142,3.358,7.5,7.5,7.5s7.5-3.358,7.5-7.5v-16.275
		c17.938,1.038,34.899,5.77,50.135,13.449l-8.13,14.082c-2.071,3.587-0.842,8.174,2.745,10.245c1.181,0.682,2.471,1.006,3.743,1.006
		c2.592,0,5.113-1.345,6.502-3.751l8.117-14.059c14.569,9.62,27.072,22.122,36.692,36.692l-14.059,8.117
		c-3.587,2.071-4.816,6.658-2.745,10.245c1.389,2.406,3.91,3.751,6.502,3.751c1.272,0,2.562-0.324,3.743-1.006l14.082-8.13
		c7.678,15.236,12.411,32.197,13.449,50.135H343.5c-4.142,0-7.5,3.358-7.5,7.5s3.358,7.5,7.5,7.5h16.275
		c-1.039,17.963-5.783,34.946-13.48,50.198l-14.085-8.132c-3.588-2.072-8.174-0.843-10.245,2.745
		c-2.071,3.587-0.842,8.174,2.745,10.245l14.055,8.115C329.151,372.715,316.662,385.197,302.112,394.804z"/>
	<path d="M298.197,210.197l-56,56c-0.086,0.086-0.16,0.178-0.241,0.266C238.805,264.89,235.255,264,231.5,264
		c-12.958,0-23.5,10.542-23.5,23.5c0,3.755,0.89,7.305,2.463,10.456c-0.089,0.081-0.181,0.155-0.266,0.241l-16,16
		c-2.929,2.929-2.929,7.678,0,10.606c1.464,1.464,3.384,2.197,5.303,2.197s3.839-0.732,5.303-2.197l16-16
		c0.086-0.086,0.16-0.178,0.241-0.266c3.152,1.573,6.701,2.463,10.456,2.463c12.958,0,23.5-10.542,23.5-23.5
		c0-3.755-0.89-7.305-2.463-10.456c0.089-0.081,0.181-0.155,0.266-0.241l56-56c2.929-2.929,2.929-7.678,0-10.606
		C305.875,207.268,301.125,207.268,298.197,210.197z M231.5,296c-4.687,0-8.5-3.813-8.5-8.5s3.813-8.5,8.5-8.5s8.5,3.813,8.5,8.5
		S236.187,296,231.5,296z"/>
</g>
<g>
</g>
<g>
</g>
<g>
</g>
<g>
</g>
<g>
</g>
<g>
</g>
<g>
</g>
<g>
</g>
<g>
</g>
<g>
</g>
<g>
</g>
<g>
</g>
<g>
</g>
<g>
</g>
<g>
</g>
</svg>
